<mxfile host="app.diagrams.net" modified="2023-05-03T15:19:27.036Z" agent="Mozilla/5.0 (Windows NT 10.0; Win64; x64) AppleWebKit/537.36 (KHTML, like Gecko) Chrome/112.0.0.0 Safari/537.36" etag="O8atejBJPRUahm6Ocl6a" version="21.2.4" type="device">
  <diagram name="Page-1" id="gN7yEZgDQVSFzIW-9Nqr">
    <mxGraphModel dx="1050" dy="573" grid="1" gridSize="10" guides="1" tooltips="1" connect="1" arrows="1" fold="1" page="1" pageScale="1" pageWidth="850" pageHeight="1100" math="0" shadow="0">
      <root>
        <mxCell id="0" />
        <mxCell id="1" parent="0" />
        <mxCell id="igWOuEQSbRkD7qIqNH5l-3" value="" style="edgeStyle=orthogonalEdgeStyle;rounded=0;orthogonalLoop=1;jettySize=auto;html=1;" edge="1" parent="1" source="igWOuEQSbRkD7qIqNH5l-1" target="igWOuEQSbRkD7qIqNH5l-2">
          <mxGeometry relative="1" as="geometry" />
        </mxCell>
        <mxCell id="igWOuEQSbRkD7qIqNH5l-1" value="&lt;font style=&quot;font-size: 21px;&quot;&gt;شروع&lt;/font&gt;" style="ellipse;whiteSpace=wrap;html=1;fillColor=#e6d0de;strokeColor=#996185;gradientColor=#d5739d;" vertex="1" parent="1">
          <mxGeometry x="365" y="10" width="120" height="80" as="geometry" />
        </mxCell>
        <mxCell id="igWOuEQSbRkD7qIqNH5l-5" value="" style="edgeStyle=orthogonalEdgeStyle;rounded=0;orthogonalLoop=1;jettySize=auto;html=1;" edge="1" parent="1" source="igWOuEQSbRkD7qIqNH5l-2" target="igWOuEQSbRkD7qIqNH5l-4">
          <mxGeometry relative="1" as="geometry" />
        </mxCell>
        <mxCell id="igWOuEQSbRkD7qIqNH5l-2" value="&lt;font style=&quot;font-size: 17px;&quot;&gt;i = 0&lt;br&gt;s = 0&lt;/font&gt;" style="rounded=0;whiteSpace=wrap;html=1;fillColor=#ffe6cc;strokeColor=#d79b00;" vertex="1" parent="1">
          <mxGeometry x="365" y="110" width="120" height="60" as="geometry" />
        </mxCell>
        <mxCell id="igWOuEQSbRkD7qIqNH5l-7" value="" style="edgeStyle=orthogonalEdgeStyle;rounded=0;orthogonalLoop=1;jettySize=auto;html=1;" edge="1" parent="1" source="igWOuEQSbRkD7qIqNH5l-4" target="igWOuEQSbRkD7qIqNH5l-6">
          <mxGeometry relative="1" as="geometry" />
        </mxCell>
        <mxCell id="igWOuEQSbRkD7qIqNH5l-4" value="&lt;div style=&quot;direction: rtl;&quot;&gt;&lt;span style=&quot;background-color: initial;&quot;&gt;&lt;font style=&quot;font-size: 20px;&quot;&gt;n را بگیر&lt;/font&gt;&lt;/span&gt;&lt;/div&gt;" style="shape=parallelogram;perimeter=parallelogramPerimeter;whiteSpace=wrap;html=1;fixedSize=1;fillColor=#dae8fc;strokeColor=#6c8ebf;" vertex="1" parent="1">
          <mxGeometry x="365" y="200" width="120" height="60" as="geometry" />
        </mxCell>
        <mxCell id="igWOuEQSbRkD7qIqNH5l-9" value="" style="edgeStyle=orthogonalEdgeStyle;rounded=0;orthogonalLoop=1;jettySize=auto;html=1;" edge="1" parent="1" source="igWOuEQSbRkD7qIqNH5l-6" target="igWOuEQSbRkD7qIqNH5l-8">
          <mxGeometry relative="1" as="geometry" />
        </mxCell>
        <mxCell id="igWOuEQSbRkD7qIqNH5l-6" value="&lt;font style=&quot;font-size: 18px;&quot;&gt;s = s + n&lt;br&gt;i = i + 1&lt;/font&gt;" style="rounded=0;whiteSpace=wrap;html=1;fillColor=#1ba1e2;fontColor=#ffffff;strokeColor=#006EAF;" vertex="1" parent="1">
          <mxGeometry x="365" y="280" width="120" height="60" as="geometry" />
        </mxCell>
        <mxCell id="igWOuEQSbRkD7qIqNH5l-10" style="edgeStyle=orthogonalEdgeStyle;rounded=0;orthogonalLoop=1;jettySize=auto;html=1;entryX=1;entryY=0.5;entryDx=0;entryDy=0;" edge="1" parent="1" source="igWOuEQSbRkD7qIqNH5l-8" target="igWOuEQSbRkD7qIqNH5l-4">
          <mxGeometry relative="1" as="geometry">
            <Array as="points">
              <mxPoint x="640" y="400" />
              <mxPoint x="640" y="230" />
            </Array>
          </mxGeometry>
        </mxCell>
        <mxCell id="igWOuEQSbRkD7qIqNH5l-13" value="" style="edgeStyle=orthogonalEdgeStyle;rounded=0;orthogonalLoop=1;jettySize=auto;html=1;" edge="1" parent="1" source="igWOuEQSbRkD7qIqNH5l-8" target="igWOuEQSbRkD7qIqNH5l-12">
          <mxGeometry relative="1" as="geometry" />
        </mxCell>
        <mxCell id="igWOuEQSbRkD7qIqNH5l-8" value="&lt;font style=&quot;font-size: 19px;&quot;&gt;i &amp;lt; 5&lt;/font&gt;" style="rhombus;whiteSpace=wrap;html=1;fillColor=#a20025;fontColor=#ffffff;strokeColor=#6F0000;" vertex="1" parent="1">
          <mxGeometry x="385" y="360" width="80" height="80" as="geometry" />
        </mxCell>
        <mxCell id="igWOuEQSbRkD7qIqNH5l-11" value="&lt;font style=&quot;font-size: 23px;&quot;&gt;بله&lt;/font&gt;" style="text;html=1;strokeColor=none;fillColor=none;align=center;verticalAlign=middle;whiteSpace=wrap;rounded=0;" vertex="1" parent="1">
          <mxGeometry x="510" y="370" width="60" height="30" as="geometry" />
        </mxCell>
        <mxCell id="igWOuEQSbRkD7qIqNH5l-15" value="" style="edgeStyle=orthogonalEdgeStyle;rounded=0;orthogonalLoop=1;jettySize=auto;html=1;" edge="1" parent="1" source="igWOuEQSbRkD7qIqNH5l-12" target="igWOuEQSbRkD7qIqNH5l-14">
          <mxGeometry relative="1" as="geometry" />
        </mxCell>
        <mxCell id="igWOuEQSbRkD7qIqNH5l-12" value="&lt;div style=&quot;direction: rtl;&quot;&gt;&lt;span style=&quot;background-color: initial;&quot;&gt;&lt;font style=&quot;font-size: 21px;&quot;&gt;s را نمایش بده&lt;/font&gt;&lt;/span&gt;&lt;/div&gt;" style="shape=document;whiteSpace=wrap;html=1;boundedLbl=1;fillColor=#60a917;fontColor=#ffffff;strokeColor=#2D7600;" vertex="1" parent="1">
          <mxGeometry x="365" y="460" width="120" height="80" as="geometry" />
        </mxCell>
        <mxCell id="igWOuEQSbRkD7qIqNH5l-14" value="&lt;font style=&quot;font-size: 21px;&quot;&gt;پایان&lt;/font&gt;" style="ellipse;whiteSpace=wrap;html=1;fillColor=#fa6800;fontColor=#000000;strokeColor=#C73500;" vertex="1" parent="1">
          <mxGeometry x="365" y="560" width="120" height="80" as="geometry" />
        </mxCell>
      </root>
    </mxGraphModel>
  </diagram>
</mxfile>
